<?xml version="1.0" encoding="utf-8"?>
<svg width="512" height="256" viewBox="28.852 1.04 483.148 254.96" fill="none" xmlns="http://www.w3.org/2000/svg">
  <g clip-path="url(#a)">
    <path d="M 112.152 90.129 C 117.509 90.129 121.851 85.787 121.851 80.43 C 121.851 75.074 117.509 70.732 112.152 70.732 C 106.796 70.732 102.454 75.074 102.454 80.43 C 102.454 85.787 106.796 90.129 112.152 90.129" fill="#6366f1" style=""/>
    <path d="M 118.196 82.278 C 121.096 86.421 123.809 55.441 120 50 M 120 50 L 132.835 58.247" stroke="#6366f1" stroke-width="4" stroke-linecap="round"/>
    <path d="M 150 123.737 C 155.207 123.737 159.428 119.516 159.428 114.309 C 159.428 109.102 155.207 104.881 150 104.881 C 144.793 104.881 140.572 109.102 140.572 114.309 C 140.572 119.516 144.793 123.737 150 123.737" fill="#8b5cf6" style=""/>
    <path d="M 142.784 114.443 C 165.631 132.402 157.152 83.466 154.15 79.82 M 154.51 79.82 L 166.262 87.165" stroke="#8b5cf6" stroke-width="4" stroke-linecap="round"/>
    <path d="M 383.247 159.304 C 388.355 159.304 392.495 155.163 392.495 150.057 C 392.495 144.949 388.355 140.809 383.247 140.809 C 378.14 140.809 374 144.949 374 150.057 C 374 155.163 378.14 159.304 383.247 159.304" fill="#ec4899" style=""/>
    <path d="M 389.562 153.438 C 391.105 153.438 391.264 121.34 389.923 121.34 M 389.923 121.34 L 398.969 133.737" stroke="#ec4899" stroke-width="4" stroke-linecap="round"/>
    <path d="M 335.67 175 C 341.375 175 346 170.739 346 165.482 C 346 160.225 341.375 155.964 335.67 155.964 C 329.965 155.964 325.34 160.225 325.34 165.482 C 325.34 170.739 329.965 175 335.67 175" fill="#f472b6" style=""/>
    <path d="M 343.789 166.608 C 345.232 164.924 344.871 134.991 343.428 136.675 M 343.428 136.675 L 358.428 141.675" stroke="#f472b6" stroke-width="4" stroke-linecap="round"/>
    <circle cx="256" cy="128" r="64" fill="#0369a1" fill-opacity=".1"/>
    <path d="M256 148c11.046 0 20-8.954 20-20v-20c0-11.046-8.954-20-20-20s-20 8.954-20 20v20c0 11.046 8.954 20 20 20" fill="#0ea5e9"/>
    <path d="M292 128s-.005 20-36 20-36-20-36-20m36 20v20m-20 0h40" stroke="#0ea5e9" stroke-width="8" stroke-linecap="round"/>
    <ellipse style="fill: rgb(216, 216, 216); stroke: rgb(0, 0, 0);" cx="74.991" cy="170.661" rx="8.75" ry="8.75"/>
  </g>
  <defs>
    <clipPath id="a">
      <rect width="512" height="256" rx="8" fill="#fff"/>
    </clipPath>
    <clipPath id="clip-1">
      <rect width="512" height="256" rx="8" fill="#fff"/>
    </clipPath>
    <linearGradient id="gradient-1" x1="0" y1="0" x2="512" y2="256" gradientUnits="userSpaceOnUse" gradientTransform="matrix(0.942435, 0, 0, 1, -0.358088, 0.42474)">
      <stop stop-color="#eff6ff"/>
      <stop offset="1" stop-color="#dbeafe"/>
    </linearGradient>
  </defs>
  <g clip-path="url(#clip-1)" transform="matrix(1, 0, 0, 1, 29.587357, 0.541232)">
    <rect width="482.527" height="256" rx="8" fill="url(#gradient-1)" x="-0.359" style="" y="0.425"/>
    <path d="M 112.152 90.129 C 117.509 90.129 121.851 85.787 121.851 80.43 C 121.851 75.074 117.509 70.732 112.152 70.732 C 106.796 70.732 102.454 75.074 102.454 80.43 C 102.454 85.787 106.796 90.129 112.152 90.129" fill="#6366f1" style=""/>
    <path d="M 118.196 82.278 C 121.096 86.421 123.809 55.441 120 50 M 120 50 L 132.835 58.247" stroke="#6366f1" stroke-width="4" stroke-linecap="round"/>
    <path d="M 150 123.737 C 155.207 123.737 159.428 119.516 159.428 114.309 C 159.428 109.102 155.207 104.881 150 104.881 C 144.793 104.881 140.572 109.102 140.572 114.309 C 140.572 119.516 144.793 123.737 150 123.737" fill="#8b5cf6" style=""/>
    <path d="M 142.784 114.443 C 165.631 132.402 157.152 83.466 154.15 79.82 M 154.51 79.82 L 166.262 87.165" stroke="#8b5cf6" stroke-width="4" stroke-linecap="round"/>
    <path d="M 383.247 159.304 C 388.355 159.304 392.495 155.163 392.495 150.057 C 392.495 144.949 388.355 140.809 383.247 140.809 C 378.14 140.809 374 144.949 374 150.057 C 374 155.163 378.14 159.304 383.247 159.304" fill="#ec4899" style=""/>
    <path d="M 389.562 153.438 C 391.105 153.438 391.264 121.34 389.923 121.34 M 389.923 121.34 L 398.969 133.737" stroke="#ec4899" stroke-width="4" stroke-linecap="round"/>
    <path d="M 335.67 175 C 341.375 175 346 170.739 346 165.482 C 346 160.225 341.375 155.964 335.67 155.964 C 329.965 155.964 325.34 160.225 325.34 165.482 C 325.34 170.739 329.965 175 335.67 175" fill="#f472b6" style=""/>
    <path d="M 343.789 166.608 C 345.232 164.924 344.871 134.991 343.428 136.675 M 343.428 136.675 L 353.861 149.027" stroke="#f472b6" stroke-width="4" stroke-linecap="round"/>
    <circle cx="256" cy="128" r="64" fill="#0369a1" fill-opacity=".1"/>
    <path d="M256 148c11.046 0 20-8.954 20-20v-20c0-11.046-8.954-20-20-20s-20 8.954-20 20v20c0 11.046 8.954 20 20 20" fill="#0ea5e9"/>
    <path d="M292 128s-.005 20-36 20-36-20-36-20m36 20v20m-20 0h40" stroke="#0ea5e9" stroke-width="8" stroke-linecap="round"/>
    <ellipse style="stroke: rgb(139, 92, 246); fill: rgb(139, 92, 246);" cx="172.78" cy="217.28" rx="8.75" ry="8.75"/>
    <ellipse style="stroke: rgb(0, 0, 0); fill: rgb(139, 92, 246); fill-rule: nonzero; stroke-width: 0px; transform-origin: 140.443px 209.916px 0px;" cx="140.262" cy="210.457" rx="8.93" ry="8.93"/>
    <path d="M 145.164 212.467 C 146.715 214.683 148.903 207.101 150.019 198.737 C 150.991 191.463 151.152 183.597 149.38 181.066 M 149.38 181.066 L 179.951 193.254" stroke-width="4" stroke-linecap="round" style="stroke-width: 4px; stroke: rgb(139, 92, 246); fill: rgba(236, 72, 153, 0);"/>
    <path style="stroke-width: 4px; stroke: rgb(139, 92, 246); stroke-linecap: round;" d="M 180.728 193.477 C 182.358 193.477 181.97 220.278 177.575 220.278"/>
  </g>
</svg>
